<svg aria-hidden="true" style="position: absolute; width: 0; height: 0; overflow: hidden;" version="1.1" xmlns="http://www.w3.org/2000/svg" xmlns:xlink="http://www.w3.org/1999/xlink">
<defs>
<symbol id="tel" viewBox="0 0 32 32">
<path stroke-linejoin="miter" stroke-linecap="butt" stroke-miterlimit="4" stroke-width="2.4" d="M7.437 20.744c2.771 3.305 6.168 5.986 10.022 7.882l0.18 0.080c1.491 0.704 3.486 1.539 5.709 1.683 0.138 0.005 0.269 0.011 0.406 0.011 1.491 0 2.69-0.512 3.666-1.568 0.006-0.008 0.019-0.019 0.024-0.032 0.347-0.416 0.744-0.794 1.157-1.192 0.293-0.278 0.568-0.551 0.838-0.829l0.007-0.007c1.275-1.325 1.275-3.008-0.013-4.29l-3.6-3.587c-0.611-0.632-1.341-0.966-2.109-0.966-0.766 0-1.504 0.334-2.131 0.96l-2.144 2.136c-0.198-0.112-0.403-0.214-0.594-0.31-0.266-0.127-0.482-0.246-0.691-0.375l0.032 0.018c-1.952-1.235-3.726-2.848-5.422-4.918-0.856-1.080-1.43-1.987-1.832-2.912 0.563-0.507 1.090-1.038 1.6-1.557 0.179-0.186 0.365-0.37 0.55-0.555 0.646-0.645 0.994-1.392 0.994-2.149 0-0.758-0.341-1.504-0.994-2.149l-1.786-1.778c-0.208-0.208-0.406-0.411-0.611-0.621-0.396-0.411-0.792-0.803-1.198-1.184l-0.018-0.016c-0.614-0.602-1.341-0.918-2.109-0.918-0.76 0-1.491 0.317-2.131 0.925l-2.24 2.232c-0.774 0.754-1.283 1.778-1.372 2.92l-0.001 0.016c-0.114 1.427 0.15 2.942 0.832 4.774 1.050 2.835 2.63 5.467 4.979 8.277z"></path>
</symbol>
<symbol id="logo" viewBox="0 0 107 32">
<path d="M20.506 0c-2.078 0-3.779 1.693-3.779 3.759s1.703 3.72 3.779 3.72c0.007 0 0.016 0 0.024 0 2.053 0 3.717-1.664 3.717-3.717 0-0.001 0-0.002 0-0.004v0c0-0.003 0-0.007 0-0.010 0-2.067-1.674-3.744-3.74-3.749h-0zM5.043 8.333c-0.011-0-0.023-0.001-0.036-0.001-0.624 0-1.129 0.506-1.129 1.129s0.506 1.129 1.129 1.129c0.013 0 0.025-0 0.038-0.001l-0.002 0h12.328c0.422-0.023 1.648 0.077 2.2 0.785 0.583 0.754 0.314 2.074 0 3.042l-3.849 12.267c-0.567 1.822-2.345 2.966-4.055 2.217-1.41-0.617-1.503-1.951-1.027-3.247 0.062-0.16 0.138-0.274 0.207-0.411 0 0 3.066-5.742 3.742-7.343 0.498-1.174-0.146-1.982-1.687-1.982h-7.006c-0.011-0-0.023-0.001-0.036-0.001-0.624 0-1.129 0.506-1.129 1.129s0.506 1.129 1.129 1.129c0.013 0 0.025-0 0.038-0.001l-0.002 0h1.992c0.423-0.023 1.68 0.030 2.162 0.785 0.904 1.402 0.283 1.859-1.066 6.526-0.083 0.245-0.16 0.496-0.206 0.754 0 0-0.928 3.264 2.023 4.614 2.729 1.242 5.895-0.085 6.838-3.042 0.659-2.081 4.086-12.709 4.086-12.709 0.697-2.166 0.583-3.897-0.375-5.125-1.326-1.691-3.695-1.654-4.056-1.639l-12.248-0.008zM1.135 12.061c-0.629 0-1.135 0.503-1.135 1.129 0 0.625 0.506 1.159 1.135 1.159h14.496c0.629 0 1.135-0.534 1.135-1.159 0 0 0 0 0 0 0-0.624-0.506-1.129-1.129-1.129-0.002 0-0.004 0-0.006 0h-14.496zM37.343 7.417c-1.761 0-4.897 0.214-4.897 1.889 0 2.439 5.277 2.461 5.277 3.855 0 0.423-0.44 0.8-1.427 0.8-1.382 0-2.163-0.081-3.44-0.297-0.537-0.088-0.72 0.949-0.272 1.061 0.834 0.215 2.141 0.4 4.495 0.4 1.76 0 4.829-0.311 4.829-1.993 0-2.439-5.239-2.454-5.239-3.751 0-0.423 0.44-0.8 1.427-0.8h3.333c0.675 0 0.675-1.165 0-1.165h-4.085zM49.832 7.417c-1.913 0-5.139 0.111-5.139 2.69v2.357c0 2.586 3.226 2.69 5.139 2.69 2.027 0 3.113-0.185 3.949-0.4 0.455-0.111 0.265-1.157-0.274-1.061-1.274 0.216-2.049 0.297-3.439 0.297-1.291 0-1.632-0.289-1.632-1.061v-0.896c0-0.304 0.075-0.363 0.41-0.363h2.619c0.509 0 0.509-0.994 0-0.994h-2.619c-0.335 0-0.411-0.058-0.411-0.362v-0.667c0-0.777 0.343-1.059 1.634-1.059h3.303c0.674 0 0.674-1.163 0-1.163h-3.539v-0.008zM61.638 7.417c-1.912 0-5.139 0.111-5.139 2.69v2.461c0 2.401 3.090 2.527 5.003 2.527 1.625 0 5.17-0.081 5.17-2.327v-0.734c0-0.919-0.615-1.163-1.837-1.163h-2.688c-0.365 0-0.365 0.993 0 0.993h0.819c0.335 0 0.373 0.066 0.373 0.362v0.631c0 0.777-0.736 1.193-1.838 1.193-1.101 0-1.496-0.423-1.496-1.193v-3.225c0-0.777 0.577-1.059 1.869-1.059h3.303c0.674 0 0.674-1.163 0-1.163h-3.538v0.007zM68.745 7.417c-0.463 0-0.456 0.184-0.342 0.562l1.974 5.849c0.266 0.72 0.843 1.193 1.975 1.193s1.67-0.481 1.936-1.126c0 0 0.782-2.283 0.918-2.691 0.091-0.281 0.32-0.281 0.411 0 0.113 0.349 0.887 2.624 0.887 2.624 0.381 0.757 0.783 1.193 1.937 1.193 1.359 0 1.951-0.541 2.178-1.193 0.144-0.407 1.192-3.898 1.838-5.914 0.129-0.393 0.091-0.497-0.274-0.497h-1.191c-0.373 1.231-1.519 4.929-1.565 5.086-0.083 0.281-0.296 0.274-0.409 0-0.077-0.194-1.36-3.618-1.566-4.152-0.211-0.534-0.797-0.926-1.464-0.926-0.6 0-1.162 0.319-1.36 0.926-0.197 0.608-1.274 3.989-1.328 4.151-0.083 0.282-0.319 0.282-0.41 0-0.061-0.17-1.23-3.906-1.602-5.085h-2.543zM89.671 7.417c-1.854 0-4.8-0.016-4.8 2.223v4.646c0 0.467 0.358 0.734 1.566 0.734 1.206 0 1.563-0.326 1.563-0.734v-2.126c0-0.304 0.075-0.363 0.409-0.363h2.453c0.334 0 0.41 0.067 0.41 0.363v2.127c0 0.408 0.357 0.734 1.563 0.734 1.208 0 1.565-0.259 1.565-0.734v-4.647c0-2.239-2.878-2.224-4.73-2.224zM96.442 7.417c-0.304 0-0.433 0.222-0.206 0.496 0.768 0.934 2.567 3.135 2.688 3.291 0.152 0.185 0.373 0.445 0.373 0.733v2.358c0 0.408 0.394 0.734 1.602 0.734 1.207 0 1.632-0.259 1.632-0.734v-2.558c0-0.304 0.206-0.466 0.371-0.666 0.122-0.157 1.823-2.194 2.619-3.158 0.229-0.282 0.107-0.497-0.205-0.497h-1.427l-1.974 2.528c-0.069 0.083-0.173 0.136-0.289 0.136s-0.22-0.053-0.288-0.136l-0.001-0.001c-0.144-0.178-1.906-2.528-1.906-2.528h-2.991zM106.715 7.417c-0.002 0-0.004-0-0.006-0-0.387 0-0.701 0.31-0.708 0.695v0.001c0.016 0.382 0.329 0.686 0.714 0.686s0.698-0.304 0.714-0.684l0-0.001c-0.004-0.386-0.318-0.697-0.704-0.697-0.003 0-0.006 0-0.010 0h0.001zM106.715 7.579c0.288 0 0.546 0.251 0.546 0.534 0 0.281-0.258 0.496-0.546 0.496-0.005 0-0.010 0-0.016 0-0.273 0-0.494-0.221-0.494-0.494 0-0.001 0-0.002 0-0.003v0c0-0.282 0.221-0.534 0.509-0.534zM106.411 7.846c-0.023 0-0.031 0.008-0.031 0.030v0.431c0 0.029 0.023 0.029 0.099 0.029 0.083 0 0.098-0.007 0.098-0.029v-0.363c0-0.023 0.008-0.030 0.030-0.030h0.099c0.069 0 0.098 0.037 0.098 0.066 0 0.053-0.083 0.067-0.167 0.067h-0.030c-0.039 0-0.031 0.111 0 0.133 0.083 0.067 0.159 0.134 0.205 0.163 0.015 0.015 0.046 0 0.069 0h0.205c0.023 0 0.023-0.015 0-0.030l-0.274-0.2c0.069 0 0.274 0.007 0.274-0.134 0-0.096-0.129-0.134-0.304-0.134h-0.371zM89.67 8.409c1.253 0 1.602 0.327 1.602 1.097v0.926c0 0.327-0.069 0.365-0.373 0.365h-2.482c-0.334 0-0.41-0.067-0.41-0.363v-0.926c0-0.771 0.41-1.097 1.663-1.097zM36.109 18.683c-0.519 0-0.917 0.159-1.192 0.475-0.277 0.317-0.415 0.765-0.415 1.343 0 0.586 0.152 1.038 0.455 1.354 0.31 0.317 0.723 0.475 1.242 0.475 0.277 0 0.509-0.038 0.697-0.112 0.195-0.073 0.381-0.158 0.555-0.251 0.112 0.091 0.201 0.206 0.26 0.337l0.002 0.006c0.064 0.126 0.102 0.274 0.102 0.431 0 0.008-0 0.017-0 0.025l0-0.001c0 0.275-0.155 0.512-0.465 0.706-0.303 0.19-0.768 0.283-1.394 0.283-0.451 0-0.875-0.064-1.273-0.192-0.402-0.129-0.749-0.329-1.043-0.589l0.003 0.003c-0.3-0.277-0.539-0.613-0.701-0.991l-0.007-0.019c-0.167-0.411-0.251-0.898-0.251-1.465 0-0.526 0.080-0.986 0.242-1.383 0.168-0.405 0.394-0.745 0.677-1.021 0.29-0.277 0.626-0.486 1.010-0.627 0.358-0.134 0.772-0.212 1.205-0.212 0.010 0 0.020 0 0.030 0h-0.002c0.619 0 1.097 0.101 1.434 0.303 0.343 0.202 0.514 0.462 0.514 0.777 0 0.007 0 0.015 0 0.022 0 0.162-0.049 0.312-0.132 0.436l0.002-0.003c-0.081 0.121-0.182 0.222-0.299 0.3l-0.004 0.002c-0.162-0.108-0.348-0.206-0.544-0.286l-0.021-0.008c-0.192-0.077-0.415-0.122-0.648-0.122-0.014 0-0.027 0-0.041 0l0.002-0zM40.209 17.633c0.114-0.067 0.286-0.131 0.515-0.192 0.235-0.061 0.472-0.091 0.707-0.091 0.336 0 0.633 0.051 0.889 0.152 0.263 0.094 0.431 0.246 0.505 0.455 0.121 0.35 0.251 0.758 0.394 1.223-0.013-0.208 0.274 0.763 0.553 1.739l0.286 1.171 0.353 1.272c-0.097 0.103-0.22 0.181-0.359 0.221l-0.006 0.001c-0.161 0.061-0.353 0.091-0.576 0.091-0.16 0-0.299-0.014-0.414-0.041-0.104-0.024-0.195-0.066-0.276-0.123l0.002 0.002c-0.070-0.058-0.128-0.129-0.17-0.209l-0.002-0.004c-0.039-0.083-0.076-0.183-0.107-0.287l-0.004-0.016-0.183-0.697h-1.829c-0.053 0.202-0.107 0.411-0.16 0.626-0.055 0.216-0.109 0.425-0.162 0.626-0.095 0.034-0.195 0.061-0.303 0.081-0.103 0.026-0.221 0.040-0.342 0.040-0.011 0-0.023-0-0.034-0l0.002 0c-0.343 0-0.599-0.057-0.767-0.171-0.148-0.108-0.243-0.28-0.243-0.475 0-0.007 0-0.014 0-0.021l-0 0.001c0-0.095 0.013-0.189 0.040-0.283l0.091-0.333c0.046-0.183 0.111-0.408 0.191-0.678l0.283-0.869c0.101-0.317 0.209-0.64 0.323-0.969 1.454-4.642 1.657-5.212 1.86-5.781l-1.264 4.064 0.202-0.526zM41.422 18.936c-0.095 0.283-0.202 0.6-0.323 0.95-0.114 0.343-0.218 0.694-0.313 1.051h1.253c-0.148-0.593-0.249-0.948-0.355-1.3l0.062 0.24c-0.095-0.351-0.183-0.664-0.263-0.941h-0.061zM46.179 23.605c-0.289 0-0.518-0.085-0.686-0.253-0.169-0.169-0.254-0.398-0.254-0.688v-5.223c0.074-0.014 0.192-0.030 0.354-0.050 0.139-0.025 0.299-0.040 0.463-0.041h0.001c0.155 0 0.29 0.014 0.405 0.041 0.115 0.017 0.218 0.059 0.305 0.123l-0.002-0.001c0.080 0.061 0.142 0.145 0.183 0.251 0.040 0.109 0.059 0.25 0.059 0.425v3.991h2.314c0.046 0.074 0.091 0.175 0.131 0.303 0.040 0.121 0.061 0.249 0.061 0.384 0 0.27-0.057 0.462-0.171 0.576-0.112 0.101-0.262 0.163-0.425 0.163-0.011 0-0.021-0-0.032-0.001l0.002 0h-2.707zM52.187 23.534c-0.098 0.025-0.218 0.046-0.341 0.059l-0.013 0.001c-0.138 0.019-0.298 0.030-0.461 0.030-0.002 0-0.003 0-0.005 0h0c-0.154 0-0.293-0.014-0.414-0.040-0.111-0.018-0.21-0.061-0.294-0.122l0.002 0.001c-0.083-0.064-0.146-0.15-0.182-0.249l-0.001-0.004c-0.039-0.114-0.061-0.246-0.061-0.384 0-0.015 0-0.029 0.001-0.044l-0 0.002v-5.334c0.074-0.014 0.192-0.031 0.354-0.050 0.161-0.027 0.317-0.041 0.465-0.041 0.154 0 0.289 0.014 0.403 0.041 0.115 0.017 0.218 0.060 0.305 0.123l-0.002-0.001c0.081 0.061 0.142 0.144 0.183 0.251 0.040 0.109 0.059 0.25 0.059 0.425v5.335zM57.802 17.451c0.052 0.087 0.094 0.188 0.12 0.295l0.002 0.007c0.040 0.121 0.061 0.249 0.061 0.384 0 0.263-0.057 0.451-0.171 0.566-0.107 0.1-0.251 0.162-0.41 0.162-0.012 0-0.025-0-0.037-0.001l0.002 0h-2.121v1.143h2.213c0.054 0.073 0.098 0.171 0.131 0.293 0.040 0.121 0.061 0.249 0.061 0.384 0 0.256-0.057 0.441-0.171 0.555-0.107 0.1-0.251 0.162-0.41 0.162-0.012 0-0.024-0-0.036-0.001l0.002 0h-1.768v2.133c-0.098 0.025-0.219 0.046-0.342 0.059l-0.013 0.001c-0.138 0.019-0.298 0.030-0.461 0.030-0.001 0-0.002 0-0.004 0h0c-0.155 0-0.294-0.014-0.415-0.040-0.111-0.018-0.21-0.061-0.294-0.122l0.002 0.001c-0.083-0.064-0.145-0.15-0.181-0.249l-0.001-0.004c-0.039-0.114-0.061-0.246-0.061-0.384 0-0.015 0-0.029 0.001-0.044l-0 0.002v-4.394c0-0.289 0.085-0.519 0.251-0.687 0.169-0.168 0.399-0.253 0.688-0.253h3.365zM58.513 20.503c0-0.526 0.080-0.991 0.242-1.394 0.168-0.405 0.394-0.742 0.677-1.010 0.29-0.277 0.626-0.486 1.010-0.627 0.366-0.134 0.789-0.212 1.23-0.212 0.012 0 0.023 0 0.035 0h-0.002c0.451 0 0.869 0.071 1.254 0.211 0.39 0.142 0.73 0.351 1.019 0.627 0.29 0.269 0.515 0.606 0.678 1.010 0.168 0.403 0.251 0.869 0.251 1.394s-0.080 0.993-0.241 1.403c-0.157 0.4-0.388 0.74-0.677 1.020l-0.001 0.001c-0.281 0.266-0.618 0.476-0.99 0.611l-0.020 0.006c-0.368 0.134-0.793 0.212-1.235 0.212-0.013 0-0.026-0-0.040-0l0.002 0c-0.457 0-0.882-0.071-1.272-0.213-0.393-0.148-0.73-0.364-1.011-0.636l0.001 0.001c-0.284-0.282-0.511-0.622-0.661-1.001l-0.007-0.020c-0.154-0.392-0.243-0.845-0.243-1.319 0-0.023 0-0.046 0.001-0.069l-0 0.003zM60.331 20.503c0 0.613 0.126 1.071 0.374 1.374 0.249 0.303 0.583 0.455 1 0.455 0.425 0 0.761-0.152 1.010-0.455s0.374-0.761 0.374-1.375c0-0.606-0.125-1.061-0.374-1.363-0.242-0.303-0.575-0.455-1-0.455-0.012-0-0.027-0.001-0.042-0.001-0.389 0-0.736 0.176-0.967 0.453l-0.002 0.002c-0.249 0.297-0.374 0.751-0.374 1.365zM67.678 21.593v1.941c-0.098 0.025-0.219 0.046-0.342 0.059l-0.013 0.001c-0.138 0.019-0.298 0.030-0.461 0.030-0.001 0-0.002 0-0.003 0h0c-0.155 0-0.294-0.014-0.415-0.040-0.111-0.018-0.21-0.061-0.294-0.122l0.002 0.001c-0.077-0.066-0.136-0.152-0.17-0.248l-0.001-0.004c-0.039-0.115-0.061-0.247-0.061-0.384 0-0.014 0-0.029 0.001-0.043l-0 0.002v-4.758c0-0.142 0.037-0.249 0.111-0.323 0.089-0.085 0.197-0.151 0.317-0.19l0.006-0.002c0.229-0.080 0.495-0.137 0.798-0.171 0.303-0.041 0.626-0.061 0.97-0.061 0.929 0 1.63 0.194 2.102 0.585 0.471 0.391 0.707 0.92 0.707 1.586 0 0.418-0.109 0.775-0.323 1.071-0.216 0.297-0.472 0.526-0.768 0.687 0.242 0.331 0.481 0.64 0.717 0.93 0.237 0.289 0.422 0.552 0.557 0.789-0.11 0.421-0.488 0.727-0.937 0.727-0.012 0-0.024-0-0.035-0.001l0.002 0c-0.149 0-0.277-0.017-0.384-0.050s-0.202-0.081-0.286-0.143l0.002 0.002c-0.084-0.065-0.157-0.138-0.22-0.22l-0.002-0.003c-0.063-0.081-0.126-0.173-0.185-0.269l-0.007-0.013-0.848-1.365h-0.536zM68.314 20.25c0.256 0 0.457-0.064 0.606-0.192 0.149-0.135 0.223-0.331 0.223-0.586 0-0.256-0.085-0.448-0.253-0.576-0.162-0.135-0.422-0.202-0.777-0.202-0.005-0-0.012-0-0.018-0-0.151 0-0.299 0.015-0.442 0.042l0.014-0.002v1.515h0.647zM77.623 23.361c-0.113 0.103-0.253 0.177-0.408 0.212l-0.006 0.001c-0.176 0.054-0.389 0.080-0.637 0.080-0.25 0-0.486-0.037-0.709-0.111-0.222-0.073-0.403-0.251-0.545-0.535l-1-2.041c-0.042-0.074-0.133-0.266-0.221-0.46l-0.051-0.125c-0.081-0.189-0.169-0.405-0.263-0.647l-0.061 0.009c0.026 0.365 0.040 0.735 0.040 1.112 0.007 0.377 0.010 0.747 0.010 1.111v1.566c-0.094 0.024-0.211 0.046-0.329 0.060l-0.013 0.001c-0.149 0.019-0.297 0.030-0.446 0.030s-0.279-0.010-0.393-0.030c-0.109-0.017-0.205-0.060-0.285-0.123l0.001 0.001c-0.076-0.064-0.134-0.145-0.17-0.238l-0.001-0.004c-0.039-0.113-0.061-0.242-0.061-0.377 0-0.013 0-0.026 0.001-0.038l-0 0.002v-5.051c0.108-0.142 0.256-0.248 0.428-0.301l0.006-0.002c0.19-0.064 0.409-0.101 0.637-0.101 0.25 0 0.489 0.045 0.711 0.127l-0.014-0.005c0.229 0.073 0.411 0.248 0.545 0.525l1.010 2.041c0.102 0.208 0.192 0.407 0.273 0.595 0.080 0.183 0.168 0.394 0.263 0.637l0.050-0.010c-0.025-0.31-0.043-0.689-0.050-1.071l-0-0.019c-0.007-0.321-0.011-0.704-0.011-1.088v-1.64c0.237-0.058 0.509-0.091 0.788-0.091h0c0.297 0 0.522 0.054 0.678 0.162 0.154 0.101 0.232 0.317 0.232 0.647v5.192zM80.702 23.534c-0.098 0.025-0.219 0.046-0.342 0.059l-0.013 0.001c-0.138 0.019-0.298 0.030-0.461 0.030-0.001 0-0.002 0-0.004 0h0c-0.155 0-0.294-0.014-0.415-0.040-0.111-0.018-0.21-0.061-0.294-0.122l0.002 0.001c-0.083-0.064-0.146-0.15-0.182-0.249l-0.001-0.004c-0.038-0.114-0.060-0.244-0.060-0.38 0-0.016 0-0.031 0.001-0.047l-0 0.002v-5.334c0.073-0.014 0.192-0.031 0.353-0.050 0.161-0.027 0.317-0.041 0.465-0.041 0.154 0 0.289 0.014 0.403 0.041 0.115 0.016 0.218 0.059 0.306 0.123l-0.002-0.001c0.080 0.061 0.141 0.144 0.182 0.251 0.040 0.109 0.061 0.25 0.061 0.425v5.335zM83.314 17.633c0.114-0.067 0.286-0.131 0.515-0.192 0.237-0.061 0.472-0.091 0.709-0.091 0.336 0 0.632 0.051 0.888 0.152 0.263 0.094 0.431 0.246 0.505 0.455 0.121 0.35 0.253 0.758 0.394 1.223-0.013-0.208 0.274 0.763 0.553 1.739l0.286 1.171 0.353 1.272c-0.096 0.103-0.219 0.181-0.358 0.221l-0.006 0.001c-0.162 0.061-0.354 0.091-0.576 0.091-0.162 0-0.299-0.014-0.415-0.041-0.103-0.024-0.195-0.066-0.274-0.123l0.002 0.002c-0.070-0.058-0.128-0.129-0.17-0.209l-0.002-0.004c-0.039-0.083-0.077-0.183-0.108-0.287l-0.004-0.016-0.182-0.697h-1.829c-0.054 0.202-0.107 0.411-0.161 0.626-0.055 0.216-0.109 0.425-0.162 0.626-0.094 0.034-0.194 0.061-0.303 0.081-0.103 0.026-0.221 0.040-0.342 0.040-0.011 0-0.022-0-0.033-0l0.002 0c-0.343 0-0.6-0.057-0.768-0.171-0.148-0.108-0.243-0.28-0.243-0.475 0-0.007 0-0.014 0-0.021l-0 0.001c0-0.095 0.014-0.189 0.040-0.283 0.027-0.094 0.057-0.206 0.091-0.333 0.047-0.183 0.111-0.408 0.192-0.678l0.282-0.869c0.102-0.317 0.209-0.64 0.323-0.969 1.457-4.64 1.659-5.21 1.863-5.779l-1.266 4.062 0.201-0.526zM84.527 18.936c-0.094 0.283-0.202 0.6-0.323 0.95-0.114 0.343-0.218 0.694-0.313 1.051h1.254c-0.149-0.594-0.25-0.948-0.356-1.3l0.062 0.24c-0.094-0.351-0.182-0.664-0.263-0.941h-0.061z"></path>
</symbol>
<symbol id="instagram" viewBox="0 0 32 32">
<path d="M16.315 32h-0.32c-0.139 0.001-0.303 0.001-0.467 0.001-2.325 0-4.634-0.071-6.924-0.212l0.314 0.015c-2.068-0.124-3.954-0.839-5.456-2.064-1.449-1.182-2.439-2.78-2.942-4.75-0.437-1.716-0.462-3.399-0.484-5.026-0.016-1.17-0.032-2.553-0.036-3.961 0.004-1.413 0.020-2.798 0.036-3.964 0.023-1.63 0.046-3.312 0.484-5.028 0.503-1.97 1.493-3.568 2.942-4.75 1.502-1.227 3.388-1.941 5.456-2.066 1.978-0.125 4.289-0.197 6.617-0.197 0.164 0 0.328 0 0.491 0.001l-0.025-0c0.134-0.001 0.293-0.001 0.452-0.001 2.332 0 4.648 0.071 6.945 0.212l-0.315-0.015c2.066 0.126 3.952 0.841 5.454 2.066 1.451 1.182 2.441 2.78 2.942 4.75 0.437 1.714 0.462 3.397 0.484 5.026 0.018 1.168 0.032 2.553 0.036 3.961v0.005c-0.004 1.408-0.018 2.791-0.036 3.961-0.021 1.627-0.044 3.31-0.484 5.026-0.501 1.97-1.493 3.568-2.942 4.75-1.502 1.227-3.388 1.938-5.454 2.066-2.158 0.13-4.377 0.196-6.768 0.196zM15.995 29.5c0.14 0.001 0.306 0.001 0.472 0.001 2.274 0 4.532-0.069 6.771-0.206l-0.307 0.015c1.564-0.094 2.917-0.603 4.028-1.508 1.026-0.836 1.732-1.991 2.098-3.431 0.366-1.428 0.386-2.96 0.407-4.443 0.016-1.159 0.032-2.533 0.036-3.929-0.004-1.394-0.020-2.768-0.036-3.929-0.021-1.481-0.041-3.015-0.405-4.443-0.368-1.44-1.074-2.594-2.1-3.431-1.111-0.903-2.466-1.412-4.028-1.506-1.931-0.122-4.188-0.191-6.461-0.191-0.164 0-0.328 0-0.492 0.001l0.025-0c-0.143-0.001-0.311-0.001-0.48-0.001-2.27 0-4.524 0.069-6.76 0.206l0.307-0.015c-1.563 0.094-2.917 0.603-4.027 1.506-1.026 0.837-1.733 1.991-2.1 3.431-0.364 1.428-0.386 2.96-0.407 4.444-0.014 1.161-0.032 2.535-0.036 3.931 0.004 1.388 0.021 2.764 0.036 3.925 0.021 1.483 0.043 3.015 0.407 4.444 0.366 1.44 1.074 2.592 2.098 3.431 1.111 0.903 2.466 1.41 4.028 1.506 2.201 0.133 4.468 0.196 6.928 0.19zM15.936 23.812c-4.312-0.006-7.806-3.5-7.812-7.811v-0.001c0.006-4.312 3.5-7.806 7.811-7.812h0.001c4.313 0.004 7.809 3.499 7.815 7.811v0.001c-0.005 4.313-3.5 7.808-7.813 7.813h-0zM15.936 10.688c-2.932 0.004-5.308 2.38-5.312 5.312v0c0.003 2.933 2.379 5.31 5.312 5.314h0c2.934-0.003 5.311-2.38 5.314-5.314v-0c-0.004-2.933-2.381-5.309-5.314-5.312h-0zM24.624 5.689c-0.017-0.001-0.037-0.001-0.058-0.001-1.036 0-1.876 0.84-1.876 1.876s0.84 1.876 1.876 1.876c0.020 0 0.041-0 0.061-0.001l-0.003 0c1.036 0 1.876-0.84 1.876-1.876s-0.84-1.876-1.876-1.876v0z"></path>
</symbol>
<symbol id="basket" viewBox="0 0 32 32">
<path stroke-linejoin="round" stroke-linecap="round" stroke-miterlimit="4" stroke-width="2.0416" d="M10.474 30.691c1.446 0 2.618-1.172 2.618-2.618s-1.172-2.618-2.618-2.618v0c-1.446 0-2.618 1.172-2.618 2.618s1.172 2.618 2.618 2.618v0zM26.182 30.691c1.446 0 2.618-1.172 2.618-2.618s-1.172-2.618-2.618-2.618v0c-1.446 0-2.618 1.172-2.618 2.618s1.172 2.618 2.618 2.618v0zM7.424 8.437h22.685l-2.198 10.982c-0.246 1.211-1.302 2.109-2.568 2.109-0.018 0-0.036-0-0.054-0.001l0.003 0h-13.835c-0.006 0-0.013 0-0.021 0-1.326 0-2.423-0.986-2.595-2.265l-0.002-0.014-1.992-15.082c-0.174-1.29-1.268-2.275-2.592-2.277h-2.943"></path>
</symbol>
<symbol id="mobile-close" viewBox="0 0 32 32">
<path d="M23.734 10.304l-1.504-1.504-5.963 5.962-5.962-5.962-1.504 1.504 5.962 5.962-5.962 5.963 1.504 1.504 5.962-5.963 5.963 5.963 1.504-1.504-5.963-5.963 5.963-5.962z"></path>
</symbol>
<symbol id="mobile-burger" viewBox="0 0 32 32">
<path d="M6.4 11.734v-2.134h19.2v2.134h-19.2zM6.4 17.066h19.2v-2.133h-19.2v2.133zM6.4 22.4h19.2v-2.134h-19.2v2.134z"></path>
</symbol>
</defs>
</svg>
